<?xml version="1.0" encoding="iso-8859-1"?>
<!-- Uploaded to: SVG Repo, www.svgrepo.com, Generator: SVG Repo Mixer Tools -->
<svg fill="#000000" height="800px" width="800px" version="1.1" id="Layer_1" xmlns="http://www.w3.org/2000/svg" xmlns:xlink="http://www.w3.org/1999/xlink" 
	 viewBox="0 0 512 512" xml:space="preserve">
<g>
	<g>
		<path d="M256,66.176c-105.408,0-191.152,85.744-191.152,191.136S150.592,448.448,256,448.448
			c105.392,0,191.136-85.744,191.136-191.136S361.392,66.176,256,66.176z M256,416.448c-87.76,0-159.152-71.392-159.152-159.136
			S168.24,98.176,256,98.176c87.744,0,159.136,71.392,159.136,159.136S343.744,416.448,256,416.448z"/>
	</g>
</g>
<g>
	<g>
		<path d="M256,161.472c-52.928,0-95.968,43.04-95.968,95.968s43.04,95.968,95.968,95.968c52.928,0,95.968-43.04,95.968-95.968
			C351.968,204.512,308.928,161.472,256,161.472z M256,321.408c-35.264,0-63.968-28.704-63.968-63.968
			c0-35.264,28.704-63.968,63.968-63.968c35.264,0,63.968,28.704,63.968,63.968S291.264,321.408,256,321.408z"/>
	</g>
</g>
<g>
	<g>
		<path d="M460.08,410.448C493.664,366.144,512,311.84,512,255.984c0-57.84-19.52-113.664-55.232-158.768l18.704-18.704
			c6.64-6.64,10.304-15.456,10.288-24.848c0-9.36-3.664-18.176-10.256-24.768c-13.264-13.28-36.448-13.264-49.632-0.016
			l-19.76,19.76C362.656,17.168,309.888,0,256,0c-55.824,0-110.128,18.336-154.464,51.904L78.528,28.896
			c-13.264-13.28-36.416-13.28-49.664,0C15.232,42.544,15.216,64.8,28.88,78.496l23.024,23.04C18.336,145.856,0,200.144,0,255.984
			c0,53.872,17.168,106.64,48.624,150.112l-19.792,19.76C15.2,439.568,15.2,461.808,28.864,475.472
			c13.264,13.232,36.384,13.264,49.632,0L97.2,456.768C142.336,492.48,198.16,512,256,512c55.84,0,110.144-18.336,154.464-51.92
			l15.408,15.392c13.248,13.248,36.368,13.216,49.584,0.032c6.64-6.624,10.304-15.424,10.304-24.8
			c0.016-9.392-3.648-18.224-10.288-24.864L460.08,410.448z M452.832,452.848c-1.344,1.344-2.576,1.728-4.336,0l-25.552-25.552
			c-5.904-5.904-15.344-6.288-21.696-0.864C360.768,460.992,309.184,480,256,480c-55.024,0-107.984-20.192-149.072-56.864
			c-3.04-2.72-6.864-4.064-10.656-4.064c-4.112,0-8.208,1.584-11.312,4.688l-29.072,29.072c-1.6,1.6-2.784,1.552-4.368,0
			c-1.2-1.2-1.184-3.168,0-4.368L81.2,418.8c5.792-5.792,6.272-15.056,1.088-21.424C49.856,357.584,32,307.376,32,255.984
			c0-53.184,19.008-104.768,53.552-145.248c5.424-6.352,5.04-15.808-0.864-21.696L51.536,55.888c-1.216-1.216-1.216-3.184-0.016-4.4
			c1.488-1.472,2.816-1.488,4.352,0.016L89.04,84.672c5.904,5.888,15.328,6.272,21.696,0.864C151.232,51.008,202.832,32,256,32
			c51.408,0,101.616,17.856,141.376,50.272c6.336,5.168,15.6,4.72,21.424-1.088l29.712-29.696c1.472-1.504,2.768-1.536,4.336,0.032
			c0.736,0.736,0.896,1.6,0.896,2.176c0.016,0.576-0.16,1.424-0.912,2.192L423.76,84.96c-6,6-6.288,15.632-0.624,21.968
			C459.808,148,480,200.944,480,255.984c0,53.2-19.008,104.784-53.584,145.248c-5.424,6.352-5.04,15.808,0.864,21.696l25.552,25.536
			c0.752,0.768,0.928,1.616,0.912,2.208C453.744,451.248,453.6,452.096,452.832,452.848z"/>
	</g>
</g>
</svg>