<?xml version="1.0" encoding="iso-8859-1"?>
<!-- Uploaded to: SVG Repo, www.svgrepo.com, Generator: SVG Repo Mixer Tools -->
<!DOCTYPE svg PUBLIC "-//W3C//DTD SVG 1.1//EN" "http://www.w3.org/Graphics/SVG/1.1/DTD/svg11.dtd">
<svg fill="#000000" height="800px" width="800px" version="1.1" id="Capa_1" xmlns="http://www.w3.org/2000/svg" xmlns:xlink="http://www.w3.org/1999/xlink" 
	 viewBox="0 0 246.813 246.813" xml:space="preserve">
<g>
	<path d="M123.407,93.695c-33.398,0-60.57,27.171-60.57,60.57c0,16.356,6.527,31.207,17.1,42.116v10.954c0,4.142,3.358,7.5,7.5,7.5
		c4.02,0,7.291-3.165,7.482-7.137c8.497,4.549,18.195,7.137,28.489,7.137s19.991-2.588,28.489-7.137
		c0.191,3.972,3.462,7.137,7.482,7.137c4.142,0,7.5-3.358,7.5-7.5v-10.954c10.573-10.909,17.1-25.761,17.1-42.116
		C183.977,120.866,156.805,93.695,123.407,93.695z M77.837,154.265c0-25.127,20.442-45.57,45.57-45.57s45.57,20.442,45.57,45.57
		s-20.442,45.57-45.57,45.57S77.837,179.392,77.837,154.265z"/>
	<path d="M7.5,87.201h61.706c4.142,0,7.5-3.358,7.5-7.5s-3.358-7.5-7.5-7.5H7.5c-4.142,0-7.5,3.358-7.5,7.5S3.358,87.201,7.5,87.201
		z"/>
	<path d="M45.853,183.528v-77.125h23.353c4.142,0,7.5-3.358,7.5-7.5s-3.358-7.5-7.5-7.5H7.5c-4.142,0-7.5,3.358-7.5,7.5
		s3.358,7.5,7.5,7.5h23.353v77.125l-9.399,9.399c-2.929,2.929-2.929,7.678,0,10.606c2.929,2.929,7.678,2.929,10.606,0l6.293-6.292
		l6.292,6.292c1.464,1.465,3.384,2.197,5.303,2.197c1.919,0,3.839-0.732,5.303-2.197c2.929-2.929,2.929-7.677,0-10.606
		L45.853,183.528z"/>
	<path d="M177.608,87.201h61.706c4.142,0,7.5-3.358,7.5-7.5s-3.358-7.5-7.5-7.5h-61.706c-4.142,0-7.5,3.358-7.5,7.5
		S173.466,87.201,177.608,87.201z"/>
	<path d="M239.313,91.402h-61.706c-4.142,0-7.5,3.358-7.5,7.5s3.358,7.5,7.5,7.5h23.353v77.125l-9.399,9.399
		c-2.929,2.929-2.929,7.678,0,10.606c2.929,2.93,7.678,2.929,10.606,0l6.292-6.292l6.293,6.292c1.464,1.464,3.384,2.197,5.303,2.197
		s3.839-0.732,5.303-2.197c2.929-2.929,2.929-7.678,0-10.606l-9.399-9.399v-77.125h23.353c4.142,0,7.5-3.358,7.5-7.5
		S243.456,91.402,239.313,91.402z"/>
	<circle cx="123.407" cy="53.124" r="21.145"/>
</g>
</svg>