<?xml version="1.0" encoding="iso-8859-1"?>
<!-- Uploaded to: SVG Repo, www.svgrepo.com, Generator: SVG Repo Mixer Tools -->
<svg fill="#000000" height="800px" width="800px" version="1.1" id="Layer_1" xmlns="http://www.w3.org/2000/svg" xmlns:xlink="http://www.w3.org/1999/xlink" 
	 viewBox="0 0 512.003 512.003" xml:space="preserve">
<g>
	<g>
		<path d="M484.781,90.499h-10.331V51.78c0-14.676-11.939-26.615-26.615-26.615h-60.522c-3.561,0-6.957,0.708-10.063,1.982
			c-3.107-1.273-6.504-1.982-10.063-1.982h-60.521c-3.561,0-6.957,0.708-10.063,1.982c-3.107-1.273-6.504-1.982-10.063-1.982
			h-60.522c-3.56,0-6.957,0.708-10.063,1.982c-3.107-1.273-6.504-1.982-10.063-1.982h-60.522c-3.561,0-6.957,0.708-10.063,1.982
			c-3.107-1.273-6.504-1.982-10.063-1.982H64.718c-14.676,0-26.615,11.939-26.615,26.615v38.719H27.218
			C12.21,90.499,0,102.71,0,117.718v59.316c0,15.008,12.21,27.218,27.219,27.218h10.885v109.078
			c0,14.676,11.939,26.615,26.615,26.615h54.034v9.183c0,14.676,11.939,26.615,26.616,26.615h54.034v10.417
			c0,14.676,11.939,26.615,26.615,26.615h54.034v10.418c0,14.676,11.939,26.615,26.616,26.615h54.034v10.417
			c0,14.676,11.939,26.615,26.615,26.615h60.522c14.676,0,26.615-11.939,26.615-26.615V204.251h10.33
			c15.008,0,27.219-12.21,27.219-27.218v-59.316C512,102.71,499.79,90.499,484.781,90.499z M393.803,58.268h47.545v32.231h-47.545
			V58.268z M313.154,58.268H360.7v32.231h-47.545V58.268z M232.504,58.268h47.545v32.231h-47.545V58.268z M151.857,58.268h47.545
			v32.231h-47.545V58.268z M71.207,58.268h47.545v32.231H71.207V58.268z M118.752,306.841H71.207v-102.59h47.545V306.841z
			 M199.401,342.639h-47.545v-29.311V204.251h47.545V342.639z M280.051,379.672h-47.545v-30.545V204.251h47.545V379.672z
			 M360.698,416.705h-47.545v-30.546V204.251h47.545V416.705z M441.348,453.737h-47.545v-30.545V204.251h47.545V453.737z
			 M478.897,171.148c-5.654,0-440.143,0-445.793,0v-47.545c3.082,0,438.726,0,445.793,0V171.148z"/>
	</g>
</g>
</svg>