<?xml version="1.0" encoding="iso-8859-1"?>
<!-- Uploaded to: SVG Repo, www.svgrepo.com, Generator: SVG Repo Mixer Tools -->
<svg fill="#000000" height="800px" width="800px" version="1.1" id="Layer_1" xmlns="http://www.w3.org/2000/svg" xmlns:xlink="http://www.w3.org/1999/xlink" 
	 viewBox="0 0 512 512" xml:space="preserve">
<g>
	<g>
		<path d="M495.304,219.095H16.696C7.475,219.095,0,226.57,0,235.791v166.957c0,9.22,7.475,16.696,16.696,16.696h478.609
			c9.22,0,16.696-7.475,16.696-16.696V235.791C512,226.57,504.525,219.095,495.304,219.095z M478.609,386.052H33.391V252.486
			h445.217V386.052z"/>
	</g>
</g>
<g>
	<g>
		<path d="M412.744,285.878H99.256c-9.22,0-16.696,7.475-16.696,16.696s7.475,16.696,16.696,16.696h313.489
			c9.22,0,16.696-7.475,16.696-16.696S421.965,285.878,412.744,285.878z"/>
	</g>
</g>
<g>
	<g>
		<path d="M486.635,104.486c-2.636-8.836-11.936-13.862-20.771-11.229l-202.588,60.407c-9.563-10.798-24.852-15.707-39.584-11.314
			c-20.247,6.037-31.767,27.345-25.729,47.593c6.036,20.247,27.343,31.767,47.59,25.729c14.283-4.258,24.211-16.118,26.71-29.842
			l203.143-60.573C484.241,122.622,489.269,113.321,486.635,104.486z"/>
	</g>
</g>
</svg>