<?xml version="1.0" encoding="iso-8859-1"?>
<!-- Uploaded to: SVG Repo, www.svgrepo.com, Generator: SVG Repo Mixer Tools -->
<svg fill="#000000" height="800px" width="800px" version="1.1" id="Layer_1" xmlns="http://www.w3.org/2000/svg" xmlns:xlink="http://www.w3.org/1999/xlink" 
	 viewBox="0 0 511.999 511.999" xml:space="preserve">
<g>
	<g>
		<path d="M151.924,208.352l-8.539-11.735l4.826-13.688c1.495-4.245,0.472-8.882-2.672-12.101c-3.144-3.22-7.755-4.353-12.033-2.959
			l-13.799,4.496l-11.527-8.818c-3.574-2.735-8.301-3.196-12.334-1.199c-4.034,1.996-6.537,6.03-6.533,10.531l0.012,14.512
			l-11.949,8.237c-3.705,2.554-5.602,6.906-4.951,11.359c0.651,4.453,3.713,8.081,7.996,9.468l13.806,4.473l4.142,13.909
			c1.284,4.314,4.837,7.463,9.274,8.22c0.672,0.114,1.344,0.171,2.009,0.171c3.72,0,7.225-1.759,9.466-4.849l8.521-11.748
			l14.509,0.36c4.484,0.14,8.592-2.294,10.682-6.28C154.918,216.726,154.572,211.99,151.924,208.352z M123.745,210.18
			c-2.718-0.064-5.24,1.193-6.82,3.372l-5.557,7.661l-2.702-9.071c-0.767-2.579-2.755-4.615-5.314-5.444l-9.005-2.918l7.795-5.369
			c2.215-1.527,3.537-4.046,3.535-6.737l-0.008-9.465l7.517,5.75c2.136,1.635,4.941,2.113,7.499,1.28l8.999-2.932l-3.147,8.926
			c-0.895,2.537-0.483,5.353,1.1,7.528l5.569,7.652L123.745,210.18z"/>
	</g>
</g>
<g>
	<g>
		<path d="M227.735,367.168l-33.106-66.946c12.435-13.283,20.99-31.042,24.795-52.041c0.283-1.561,0.53-3.133,0.756-4.713
			c0.003-0.021,0.007-0.043,0.009-0.063c4.323-30.167-1.537-63.346-16.698-94.008c-15.966-32.286-40.41-58.078-68.831-72.624
			c-29.228-14.96-59.195-16.341-84.377-3.888C25.104,85.339,8.012,109.99,2.158,142.301c-5.693,31.414-0.034,66.496,15.933,98.782
			c15.161,30.657,37.968,55.45,64.562,70.328c0.025,0.014,0.05,0.027,0.074,0.041c1.388,0.776,2.786,1.532,4.195,2.254
			c1.318,0.675,2.636,1.31,3.956,1.929c0.001,0.001,0.002,0.001,0.003,0.002c0,0,0.001,0,0.002,0.001
			c14.727,6.907,29.577,10.387,43.849,10.387c2.975,0,5.925-0.158,8.845-0.46l45.367,91.739c1.426,2.883,4.321,4.553,7.334,4.553
			c1.216,0,2.452-0.273,3.617-0.849c4.044-2.001,5.702-6.905,3.7-10.951l-43.487-87.938c3.818-1.222,7.553-2.728,11.188-4.525
			c3.707-1.833,7.232-3.937,10.578-6.283l31.206,63.104c1.426,2.883,4.321,4.553,7.334,4.553c1.216,0,2.452-0.272,3.617-0.849
			C228.079,376.118,229.736,371.215,227.735,367.168z M57.533,87.541c9.212-4.555,19.142-6.714,29.362-6.714
			c10.073,0,20.419,2.119,30.614,6.094l-96.831,47.885C26.977,112.884,39.814,96.303,57.533,87.541z M16.511,172.769
			c-0.135-2.924-0.168-5.823-0.109-8.694c0.004-0.211,0.009-0.423,0.014-0.634c0.032-1.251,0.083-2.496,0.151-3.736
			c0.026-0.456,0.059-0.908,0.089-1.362c0.072-1.092,0.148-2.182,0.25-3.264c0.005-0.06,0.014-0.119,0.02-0.179l118.789-58.744
			c4.961,3.095,9.789,6.612,14.448,10.52L16.511,172.769z M32.745,233.836c-7.051-14.257-11.868-29.064-14.376-43.748l144.42-71.418
			c9.997,10.749,18.899,23.518,26.049,37.976c8.667,17.527,13.958,35.884,15.722,53.821L65.972,279
			C53.053,266.932,41.564,251.67,32.745,233.836z M79.896,290.352l125.232-61.929c-0.041,1.138-0.11,2.267-0.181,3.394
			c-0.029,0.456-0.056,0.913-0.089,1.368c-0.073,0.979-0.162,1.952-0.258,2.922c-0.072,0.715-0.153,1.429-0.237,2.141
			c-0.098,0.829-0.194,1.659-0.31,2.481c-0.143,1.017-0.308,2.027-0.477,3.035c-0.081,0.484-0.148,0.973-0.235,1.454L94.329,299.125
			C89.413,296.607,84.591,293.676,79.896,290.352z M164.051,302.94c-9.212,4.555-19.143,6.715-29.363,6.714
			c-6.461-0.001-13.034-0.885-19.607-2.554l81.951-40.526C189.99,283.098,178.696,295.698,164.051,302.94z"/>
	</g>
</g>
<g>
	<g>
		<circle cx="154.178" cy="145.262" r="8.174"/>
	</g>
</g>
<g>
	<g>
		<circle cx="42.92" cy="195.245" r="8.174"/>
	</g>
</g>
<g>
	<g>
		<circle cx="174.788" cy="202.177" r="8.174"/>
	</g>
</g>
<g>
	<g>
		<circle cx="73.448" cy="250.089" r="8.174"/>
	</g>
</g>
<g>
	<g>
		<path d="M509.331,111.298c-7.21-39.792-28.213-70.13-59.14-85.423c-30.927-15.295-67.786-13.571-103.785,4.854
			c-35.19,18.01-65.471,49.973-85.265,90.001c-18.799,38.014-26.066,79.125-20.715,116.482c0.003,0.025,0.008,0.05,0.011,0.075
			c0.281,1.954,0.586,3.901,0.936,5.833c4.883,26.948,16.098,49.55,32.43,66.091l-69.007,139.545
			c-3.914,7.915-4.511,16.879-1.682,25.244c2.829,8.364,8.745,15.126,16.66,19.04c4.698,2.323,9.684,3.422,14.6,3.422
			c12.185,0,23.927-6.758,29.684-18.4l69.175-139.883c4.003,0.464,8.055,0.702,12.149,0.702c17.568,0,35.867-4.291,54.023-12.805
			c0.001,0,0.002-0.001,0.002-0.001c0.002-0.001,0.003-0.002,0.005-0.003c1.63-0.765,3.26-1.551,4.887-2.384
			c1.748-0.895,3.48-1.833,5.202-2.796c0.024-0.013,0.048-0.027,0.073-0.04c32.935-18.424,61.193-49.152,79.99-87.165
			C509.359,193.661,516.378,150.196,509.331,111.298z M405.322,31.914c13.278,0,25.991,2.863,37.621,8.615
			c24.686,12.207,41.165,35.794,48.444,64.906L362.001,41.452C376.673,35.113,391.314,31.914,405.322,31.914z M249.403,470.815
			c-1.978,4-5.395,6.991-9.623,8.421c-4.227,1.429-8.758,1.127-12.758-0.85c-4-1.978-6.992-5.396-8.421-9.624
			c-1.43-4.227-1.128-8.758,0.85-12.758l67.163-135.816c4.376,3.145,9.014,5.94,13.901,8.356c5.221,2.582,10.609,4.678,16.134,6.291
			L249.403,470.815z M307.762,313.891c-6.19-3.062-11.908-6.871-17.126-11.347c-0.706-1.021-1.659-1.889-2.817-2.518
			c-10.518-9.875-18.773-22.656-24.377-37.758l112.264,55.516C352.27,324.926,328.572,324.182,307.762,313.891z M395.975,309.57
			l-138.327-68.406c-1.564-8.291-2.415-16.913-2.547-25.773l162.903,80.559C410.883,301.223,403.513,305.781,395.975,309.57z
			 M474.91,226.442c-11.391,23.033-26.307,42.683-43.093,58.102l-176.065-87.067c2.089-23.15,8.857-46.879,20.043-69.5
			c9.155-18.514,20.696-35.13,33.974-49.168l183.56,90.774C490.281,188.372,484.2,207.657,474.91,226.442z M495.272,152.306
			L322.35,66.793c6.939-6.042,14.195-11.392,21.687-15.987l150.776,74.561C495.708,134.111,495.862,143.125,495.272,152.306z"/>
	</g>
</g>
<g>
	<g>
		<path d="M416.017,179.389l-15.85-10.927l0.015-19.252c0.003-4.845-2.692-9.188-7.035-11.335c-4.34-2.145-9.43-1.651-13.276,1.292
			l-15.29,11.698l-18.305-5.964c-4.606-1.502-9.569-0.28-12.954,3.186c-3.384,3.466-4.487,8.458-2.876,13.028l6.401,18.157
			l-11.328,15.566c-2.851,3.917-3.224,9.015-0.972,13.304c2.251,4.29,6.65,6.885,11.5,6.76l19.247-0.476l11.303,15.583
			c2.413,3.328,6.185,5.221,10.191,5.221c0.715,0,1.439-0.061,2.162-0.184c4.775-0.815,8.6-4.205,9.984-8.849l5.494-18.452
			l18.315-5.935c4.608-1.492,7.906-5.397,8.607-10.191S420.006,182.139,416.017,179.389z M385.298,193.516
			c-2.559,0.829-4.547,2.865-5.314,5.444l-4.572,15.357l-9.408-12.97c-1.54-2.123-4.002-3.374-6.617-3.374
			c-0.068,0-0.135,0.001-0.203,0.002l-16.018,0.397l9.428-12.956c1.584-2.175,1.995-4.991,1.1-7.528l-5.327-15.112l15.236,4.963
			c2.559,0.835,5.362,0.355,7.499-1.28l12.726-9.736l-0.013,16.023c-0.002,2.691,1.32,5.21,3.535,6.737l13.192,9.094
			L385.298,193.516z"/>
	</g>
</g>
<g>
	<g>
		<circle cx="321.031" cy="114.636" r="8.174"/>
	</g>
</g>
<g>
	<g>
		<circle cx="460.321" cy="177.207" r="8.174"/>
	</g>
</g>
<g>
	<g>
		<circle cx="295.233" cy="185.893" r="8.174"/>
	</g>
</g>
<g>
	<g>
		<circle cx="422.109" cy="245.882" r="8.174"/>
	</g>
</g>
</svg>