<?xml version="1.0" encoding="iso-8859-1"?>
<!-- Uploaded to: SVG Repo, www.svgrepo.com, Generator: SVG Repo Mixer Tools -->
<svg fill="#000000" height="800px" width="800px" version="1.1" id="Layer_1" xmlns="http://www.w3.org/2000/svg" xmlns:xlink="http://www.w3.org/1999/xlink" 
	 viewBox="0 0 512 512" xml:space="preserve">
<g>
	<g>
		<path d="M330.032,112H181.936C152.208,112,128,136.544,128,166.688v290.624C128,487.456,152.208,512,181.936,512h148.096
			c29.76,0,53.968-24.544,53.968-54.704V166.688C384,136.544,359.792,112,330.032,112z M352,457.312
			c0,12.512-9.856,22.688-21.968,22.688H181.936C169.84,480,160,469.824,160,457.296V166.688c0-12.512,9.84-22.688,21.936-22.688
			h148.096C342.144,144,352,154.176,352,166.688V457.312z"/>
	</g>
</g>
<g>
	<g>
		<path d="M368,160H144c-8.848,0-16,7.168-16,16v112c0,8.832,7.152,16,16,16h224c8.848,0,16-7.168,16-16V176
			C384,167.168,376.848,160,368,160z M352,272H160v-80h192V272z"/>
	</g>
</g>
<g>
	<g>
		<path d="M218.24,325.12c-6.08-5.92-16.8-5.76-22.72,0c-2.88,3.04-4.64,7.2-4.64,11.36s1.76,8.32,4.64,11.36
			c3.04,2.88,7.2,4.64,11.36,4.64c4.144,0,8.32-1.6,11.36-4.64c2.88-3.04,4.64-7.04,4.64-11.36
			C222.88,332.32,221.12,328.16,218.24,325.12z"/>
	</g>
</g>
<g>
	<g>
		<path d="M266.72,325.12c-6.08-5.92-16.8-5.76-22.72,0c-2.896,3.04-4.64,7.2-4.64,11.36c0,4.32,1.744,8.48,4.64,11.36
			c3.024,2.88,7.024,4.64,11.36,4.64c4.16,0,8.304-1.76,11.36-4.64c2.88-3.04,4.64-7.2,4.64-11.36
			C271.36,332.32,269.6,328.16,266.72,325.12z"/>
	</g>
</g>
<g>
	<g>
		<path d="M314.72,325.12c-5.92-5.92-16.64-5.92-22.72,0c-2.896,3.04-4.64,7.2-4.64,11.36s1.744,8.32,4.64,11.36
			c3.024,2.88,7.2,4.64,11.36,4.64c4.16,0,8.304-1.76,11.36-4.64c2.88-3.04,4.64-7.2,4.64-11.36
			C319.36,332.32,317.6,328.16,314.72,325.12z"/>
	</g>
</g>
<g>
	<g>
		<path d="M218.24,421.76c-6.08-6.08-16.8-5.92-22.72-0.16c-2.88,3.04-4.64,7.2-4.64,11.36c0,4.32,1.76,8.48,4.64,11.36
			c3.04,2.88,7.04,4.64,11.36,4.64c4.144,0,8.32-1.6,11.36-4.64c2.88-2.88,4.64-7.04,4.64-11.36
			C222.88,428.8,221.12,424.64,218.24,421.76z"/>
	</g>
</g>
<g>
	<g>
		<path d="M266.72,421.6c-6.08-5.92-16.8-5.92-22.72,0c-2.896,3.04-4.64,7.2-4.64,11.36c0,4.32,1.744,8.32,4.64,11.36
			c3.024,3.04,7.024,4.64,11.36,4.64c4.16,0,8.304-1.6,11.36-4.64c2.88-3.04,4.64-7.2,4.64-11.36
			C271.36,428.8,269.6,424.64,266.72,421.6z"/>
	</g>
</g>
<g>
	<g>
		<path d="M314.72,421.76c-5.92-6.08-16.64-6.08-22.72,0c-2.896,2.88-4.64,7.04-4.64,11.2c0,4.32,1.744,8.32,4.64,11.36
			c3.024,3.04,7.2,4.64,11.36,4.64c4.16,0,8.304-1.6,11.36-4.64c2.88-3.04,4.64-7.2,4.64-11.36
			C319.36,428.8,317.6,424.64,314.72,421.76z"/>
	</g>
</g>
<g>
	<g>
		<path d="M218.24,373.6c-6.08-5.92-16.8-5.92-22.72,0c-2.88,3.04-4.64,7.2-4.64,11.36c0,4.32,1.76,8.32,4.64,11.36
			c3.04,3.04,7.04,4.64,11.36,4.64c4.144,0,8.32-1.6,11.36-4.64c2.88-3.04,4.64-7.04,4.64-11.36
			C222.88,380.8,221.12,376.64,218.24,373.6z"/>
	</g>
</g>
<g>
	<g>
		<path d="M266.72,373.6c-6.08-5.92-16.8-5.76-22.72,0c-2.896,3.04-4.64,7.2-4.64,11.36c0,4.32,1.744,8.48,4.64,11.36
			c3.024,3.04,7.024,4.64,11.36,4.64c4.16,0,8.304-1.6,11.36-4.64c2.88-3.04,4.64-7.04,4.64-11.36
			C271.36,380.8,269.6,376.64,266.72,373.6z"/>
	</g>
</g>
<g>
	<g>
		<path d="M314.72,373.6c-6.08-5.76-16.64-5.92-22.72,0.16c-2.896,2.88-4.64,7.04-4.64,11.2s1.744,8.32,4.64,11.36
			c3.024,3.04,7.2,4.64,11.36,4.64c4.16,0,8.304-1.6,11.36-4.64c3.024-3.04,4.64-7.2,4.64-11.36S317.744,376.64,314.72,373.6z"/>
	</g>
</g>
<g>
	<g>
		<path d="M192,0c-8.848,0-16,7.168-16,16v112c0,8.832,7.152,16,16,16c8.848,0,16-7.168,16-16V16C208,7.168,200.848,0,192,0z"/>
	</g>
</g>
<g>
	<g>
		<path d="M272,96c-8.848,0-16,7.168-16,16v16c0,8.832,7.152,16,16,16c8.848,0,16-7.168,16-16v-16C288,103.168,280.848,96,272,96z"
			/>
	</g>
</g>
<g>
	<g>
		<path d="M320,96c-8.848,0-16,7.168-16,16v16c0,8.832,7.152,16,16,16c8.848,0,16-7.168,16-16v-16C336,103.168,328.848,96,320,96z"
			/>
	</g>
</g>
</svg>